:version 1.10
:name ASF
:units
  mass 1
  length 1
  angle deg
:documentation
  ASF file generated by Kaydara
:root
  axis xyz
  order  tx ty tz rx ry rz
  position 0 0 0
  orientation 0 0 0
:bonedata
  begin
    id 1
    name SpineDummy
    direction 0.999998 -0.00179978 1.38929e-006
    length 3.60008
    axis 0 0 0 xyz
  end
  begin
    id 2
    name Spine
    direction 0.964365 0.262802 0.0305839
    length 8.13928
    axis 1.33928 -1.75354 15.2838 xyz
    dof rx ry rz
  end
  begin
    id 3
    name Spine1
    direction 0.811168 0.572065 0.12144
    length 7.14954
    axis 2.2224 -6.9761 35.2157 xyz
    dof rx ry rz
  end
  begin
    id 4
    name Neck
    direction 0 0 0
    length 0
    axis 2.2224 -6.9761 35.2157 xyz
    dof rx ry rz
  end
  begin
    id 5
    name HeadDummy
    direction 0.810939 0.572387 0.121455
    length 3.55534
    axis 2.2224 -6.9761 35.2157 xyz
  end
  begin
    id 6
    name Head
    direction 0.998226 -0.000232542 0.0595419
    length 7.35666
    axis -3.03688 -3.41352 -0.0133467 xyz
    dof rx ry rz
  end
  begin
    id 7
    name R_ClavicleDummy
    direction 0.531669 -0.194489 -0.824319
    length 2.49392
    axis 2.2224 -6.9761 35.2157 xyz
  end
  begin
    id 8
    name R_Clavicle
    direction -0.155119 0.0480802 -0.986725
    length 4.485
    axis -54.2764 80.6538 162.779 xyz
    dof rx ry rz
  end
  begin
    id 9
    name R_UpperArm
    direction -0.955567 0.200068 -0.216484
    length 10.1122
    axis -72.9943 12.5026 168.175 xyz
    dof rx ry rz
  end
  begin
    id 10
    name R_Forearm
    direction -0.61433 0.385743 0.688332
    length 9.39148
    axis -117.015 -43.4982 147.875 xyz
    dof rx ry rz
  end
  begin
    id 11
    name R_Hand
    direction -0.699429 0.0170333 0.714499
    length 3.66324
    axis -45.0303 -36.7097 175.478 xyz
    dof rx ry rz
  end
  begin
    id 12
    name L_ClavicleDummy
    direction 0.40287 -0.36502 0.839319
    length 2.49392
    axis 2.2224 -6.9761 35.2157 xyz
  end
  begin
    id 13
    name L_Clavicle
    direction -0.231271 -0.0726419 0.970174
    length 4.485
    axis 18.4357 -75.9711 -162.563 xyz
    dof rx ry rz
  end
  begin
    id 14
    name L_UpperArm
    direction -0.917494 0.144359 0.370629
    length 10.1122
    axis 56.0417 -21.7544 171.058 xyz
    dof rx ry rz
  end
  begin
    id 15
    name L_Forearm
    direction -0.496786 0.615074 -0.612281
    length 9.39148
    axis 89.8094 37.7546 128.927 xyz
    dof rx ry rz
  end
  begin
    id 16
    name L_Hand
    direction -0.409932 0.64962 -0.640274
    length 3.66324
    axis -0.424369 32.133 128.52 xyz
    dof rx ry rz
  end
  begin
    id 17
    name L_ThighDummy
    direction -1.84081e-006 1.87549e-006 1
    length 3.13049
    axis 0 0 0 xyz
  end
  begin
    id 18
    name L_Thigh
    direction -0.947739 0.307978 0.083308
    length 17.9961
    axis 173.219 -4.77873 161.998 xyz
    dof rx ry rz
  end
  begin
    id 19
    name L_Calf
    direction -0.728814 -0.684427 0.0197583
    length 13.3367
    axis 167.331 -1.13214 -136.799 xyz
    dof rx ry rz
  end
  begin
    id 20
    name L_Foot
    direction -0.9028 0.418719 0.0981191
    length 5.8674
    axis 163.436 11.5135 -155.37 xyz
    dof rx ry rz
  end
  begin
    id 21
    name L_Toe0
    direction -0.35341 0.886259 0.299411
    length 4.75286
    axis 169.316 -17.4222 111.74 xyz
    dof rx ry rz
  end
  begin
    id 22
    name R_ThighDummy
    direction 9.32778e-007 -8.82053e-007 -1
    length 3.13049
    axis 0 0 0 xyz
  end
  begin
    id 23
    name R_Thigh
    direction -0.925064 0.37528 -0.0585023
    length 17.9961
    axis -178.698 3.35385 157.919 xyz
    dof rx ry rz
  end
  begin
    id 24
    name R_Calf
    direction -0.68969 -0.718776 -0.0876886
    length 13.3367
    axis -160.504 5.03065 -133.817 xyz
    dof rx ry rz
  end
  begin
    id 25
    name R_Foot
    direction -0.857405 0.418858 -0.299022
    length 5.8674
    axis -161.328 4.38911 -154.413 xyz
    dof rx ry rz
  end
  begin
    id 26
    name R_Toe0
    direction -0.100745 0.952789 -0.286433
    length 4.75286
    axis 171.683 16.6445 96.0359 xyz
    dof rx ry rz
  end
:hierarchy
  begin
    root SpineDummy L_ThighDummy R_ThighDummy
    SpineDummy Spine
    Spine Spine1
    Spine1 Neck
    Neck HeadDummy R_ClavicleDummy L_ClavicleDummy
    HeadDummy Head
    R_ClavicleDummy R_Clavicle
    R_Clavicle R_UpperArm
    R_UpperArm R_Forearm
    R_Forearm R_Hand
    L_ClavicleDummy L_Clavicle
    L_Clavicle L_UpperArm
    L_UpperArm L_Forearm
    L_Forearm L_Hand
    L_ThighDummy L_Thigh
    L_Thigh L_Calf
    L_Calf L_Foot
    L_Foot L_Toe0
    R_ThighDummy R_Thigh
    R_Thigh R_Calf
    R_Calf R_Foot
    R_Foot R_Toe0
  end

:SAMPLES-PER-SECOND 30
:FULLY-SPECIFIED
:DEGREES
461
root  -24.6439 33.5311 16.2647 -102.84 1.99096 73.8024
Spine  -13.4282 -15.5571 -8.46509
Spine1  -12.6018 16.6964 -8.353
Neck  3.97569e-016 0 -2.38542e-015
Head  26.6398 6.42607 -0.803135
R_Clavicle  0.383479 -11.4161 1.75278
R_UpperArm  11.3247 -12.2423 68.8078
R_Forearm  20.9577 24.7655 -22.5599
R_Hand  0.286794 1.34869 0.513859
L_Clavicle  -0.413136 5.40526 2.80612
L_UpperArm  -4.55331 -11.5511 6.85818
L_Forearm  -0.528424 -0.538105 -0.630851
L_Hand  0.135506 7.90444 1.36037
L_Thigh  4.48255 13.6992 -24.0531
L_Calf  3.55892 3.7957 -29.2852
L_Foot  1.13865 -2.10735 8.90625
L_Toe0  0.501452 0.0386698 -6.13934
R_Thigh  23.1914 3.49472 2.42891
R_Calf  -3.02197 11.1324 34.4165
R_Foot  -1.11973 -16.4177 -15.3259
R_Toe0  -8.94209 1.71047 -4.62343
462
root  -24.4869 35.2003 17.4033 -104.274 5.16883 74.6848
Spine  -13.6936 -16.7114 -11.777
Spine1  -13.4561 18.5523 -8.87501
Neck  3.97569e-016 0 -2.38542e-015
Head  26.9654 7.26365 2.25832
R_Clavicle  0.391431 -11.7737 1.82451
R_UpperArm  9.9117 -14.84 65.839
R_Forearm  14.4399 27.6208 -25.7877
R_Hand  0.344165 1.2512 1.54136
L_Clavicle  -0.314781 5.95988 1.6817
L_UpperArm  2.79881 -5.91595 5.10561
L_Forearm  -1.15735 0.0073732 0.000964728
L_Hand  0.370976 8.56649 3.22962
L_Thigh  -1.90532 9.27152 -23.4372
L_Calf  3.21922 3.2655 -24.9754
L_Foot  0.6837 -2.86488 7.80096
L_Toe0  0.502206 0.0377255 -6.13868
R_Thigh  14.6933 2.56299 3.48792
R_Calf  -3.48476 17.1659 41.3548
R_Foot  3.63875 5.11534 -31.5616
R_Toe0  -14.6208 2.74053 -6.03731
463
root  -24.4045 36.3881 18.4699 -105.839 7.79217 75.5693
Spine  -13.7239 -16.8787 -14.8428
Spine1  -14.0765 19.8461 -8.64438
Neck  3.97569e-016 0 -2.38542e-015
Head  28.2613 7.38838 3.2231
R_Clavicle  0.389675 -12.3581 1.78581
R_UpperArm  9.2371 -16.5206 60.8495
R_Forearm  8.12294 29.35 -27.8697
R_Hand  0.440126 1.98842 0.908803
L_Clavicle  -0.268634 8.24665 0.553346
L_UpperArm  8.23161 -2.3297 5.3281
L_Forearm  -3.66259 0.0388954 0.0385213
L_Hand  0.583261 9.68537 4.60129
L_Thigh  -7.31454 5.27275 -22.5241
L_Calf  5.07748 2.31893 -17.584
L_Foot  0.00177937 -4.26164 6.42927
L_Toe0  0.502964 0.0368296 -6.13801
R_Thigh  4.26336 2.33668 4.5508
R_Calf  0.926765 19.5681 45.2947
R_Foot  3.51415 15.328 -36.6568
R_Toe0  -6.64707 0.302853 -12.693
464
root  -24.3759 37.1214 19.525 -108.065 9.85643 76.8602
Spine  -13.1826 -15.5185 -16.8483
Spine1  -14.0979 20.5205 -8.52385
Neck  3.97569e-016 0 -2.38542e-015
Head  29.8895 7.20067 2.19359
R_Clavicle  0.396504 -13.0466 1.8401
R_UpperArm  9.02978 -17.0732 54.8695
R_Forearm  5.64153 30.4808 -29.2923
R_Hand  0.495134 2.49956 0.410404
L_Clavicle  -0.298862 11.1453 -0.308481
L_UpperArm  11.979 -0.0317733 6.1217
L_Forearm  -7.13838 -0.356699 -0.417828
L_Hand  0.690749 10.8277 5.05944
L_Thigh  -12.4021 1.98859 -21.7161
L_Calf  6.85837 1.02398 -7.8746
L_Foot  -0.886124 -5.95782 4.08265
L_Toe0  0.503678 0.0360216 -6.1374
R_Thigh  5.00233 2.95953 5.72155
R_Calf  -3.72932 16.3223 43.8406
R_Foot  3.53247 12.1823 -34.9104
R_Toe0  -1.31741 -0.338444 -17.7692
465
root  -24.385 37.3952 20.6967 -110.487 11.3967 78.8536
Spine  -12.4908 -12.7933 -16.9423
Spine1  -13.8363 20.8251 -8.98948
Neck  3.97569e-016 0 -2.38542e-015
Head  31.7454 7.35001 0.255355
R_Clavicle  0.396135 -14.1832 1.79356
R_UpperArm  8.55502 -16.0441 48.493
R_Forearm  6.75095 30.831 -29.7438
R_Hand  0.567994 2.91684 0.360285
L_Clavicle  -0.371384 13.9505 -1.15631
L_UpperArm  14.0112 1.57298 7.32796
L_Forearm  -10.4094 -1.46135 -1.69446
L_Hand  0.782704 11.884 5.38264
L_Thigh  -16.7077 -0.491517 -20.9031
L_Calf  7.54028 -0.373159 2.39333
L_Foot  -1.56432 -6.63619 0.761732
L_Toe0  0.504301 0.0353407 -6.13684
R_Thigh  7.69705 3.91419 6.80189
R_Calf  -6.74283 12.4262 39.6018
R_Foot  3.5865 5.2584 -33.0607
R_Toe0  -1.78853 -0.272788 -17.3235
466
root  -24.3714 37.2554 21.963 -111.782 11.9753 81.4399
Spine  -12.1501 -10.3664 -14.9379
Spine1  -13.7206 21.7955 -9.38848
Neck  3.97569e-016 0 -2.38542e-015
Head  33.688 8.05858 -1.97285
R_Clavicle  0.381352 -15.4769 1.48807
R_UpperArm  7.9619 -13.7994 41.7668
R_Forearm  8.67768 30.3833 -29.1678
R_Hand  0.663673 4.72605 -2.12022
L_Clavicle  -0.467671 16.3126 -2.1308
L_UpperArm  14.8135 2.3553 8.68542
L_Forearm  -14.623 -3.08779 -3.57886
L_Hand  0.85438 12.2399 5.73901
L_Thigh  -18.2913 -2.29544 -20.1904
L_Calf  8.46843 -1.60853 11.5272
L_Foot  -2.10253 -7.06096 -2.3872
L_Toe0  0.504786 0.0348265 -6.13642
R_Thigh  6.14008 4.14232 6.57638
R_Calf  -6.44436 10.4146 35.0866
R_Foot  3.43685 2.96089 -31.1272
R_Toe0  -1.78853 -0.272788 -17.3235
467
root  -24.3214 36.784 23.2656 -111.999 11.8049 83.9537
Spine  -11.7917 -9.2962 -12.0341
Spine1  -13.4586 23.7029 -9.24997
Neck  3.97569e-016 0 -2.38542e-015
Head  34.9633 9.14151 -4.31041
R_Clavicle  0.363813 -16.2087 1.09102
R_UpperArm  8.41908 -11.4278 35.3021
R_Forearm  9.52618 29.5451 -28.112
R_Hand  0.430166 7.78041 -7.73907
L_Clavicle  -0.532415 17.3874 -3.06777
L_UpperArm  14.4035 2.94372 9.11081
L_Forearm  -21.2846 -4.02299 -4.66669
L_Hand  0.637779 11.5322 4.5293
L_Thigh  -17.3291 -3.86596 -19.1493
L_Calf  10.8862 -2.60861 19.157
L_Foot  -2.72627 -8.69442 -4.33368
L_Toe0  0.505084 0.0345183 -6.13616
R_Thigh  2.36784 3.66498 5.03023
R_Calf  -5.99147 9.52046 31.3059
R_Foot  2.99673 0.90074 -27.1781
R_Toe0  -1.97025 -0.261119 -17.4268
468
root  -24.2931 35.907 24.6977 -112.48 12.3686 85.7014
Spine  -10.8955 -8.5842 -10.0317
Spine1  -12.6613 24.992 -9.33672
Neck  3.97569e-016 0 -2.38542e-015
Head  35.1901 9.89157 -6.07092
R_Clavicle  0.343252 -16.1341 0.737574
R_UpperArm  10.7599 -10.1037 29.8945
R_Forearm  9.80643 28.2901 -26.5819
R_Hand  0.120251 10.121 -11.5318
L_Clavicle  -0.489135 16.5725 -3.66606
L_UpperArm  11.6994 4.36147 8.42438
L_Forearm  -27.4345 -3.58947 -4.1627
L_Hand  0.262281 10.8375 2.06251
L_Thigh  -16.9735 -5.51949 -15.9688
L_Calf  13.1571 -3.25262 24.3343
L_Foot  -2.86903 -9.11738 -4.6422
L_Toe0  0.374315 0.0468287 -6.2543
R_Thigh  -1.67478 3.17612 4.92498
R_Calf  -3.74237 8.25172 26.677
R_Foot  2.18639 -4.14018 -23.0178
R_Toe0  -0.304871 -0.333636 -16.6207
469
root  -24.2745 34.5945 26.2782 -113.162 13.8647 87.3114
Spine  -9.68303 -6.83866 -8.74994
Spine1  -11.6704 24.5255 -10.1365
Neck  3.97569e-016 0 -2.38542e-015
Head  34.4578 10.2916 -6.90136
R_Clavicle  0.31372 -15.5491 0.378729
R_UpperArm  14.4716 -10.1591 25.3317
R_Forearm  10.4415 26.4819 -24.4722
R_Hand  0.323516 9.97414 -10.1842
L_Clavicle  -0.353947 14.4363 -3.78512
L_UpperArm  6.48636 5.82733 7.41236
L_Forearm  -28.4153 -2.90719 -3.37113
L_Hand  0.285961 10.6546 2.25453
L_Thigh  -18.1595 -6.77582 -10.6315
L_Calf  11.4124 -3.31297 24.9047
L_Foot  -1.05992 -3.384 -1.52014
L_Toe0  1.71998 -0.0832609 -5.03766
R_Thigh  -5.33952 2.65753 5.96278
R_Calf  -1.30745 6.82001 21.721
R_Foot  1.48349 -5.95274 -19.5668
R_Toe0  7.46067 -1.18828 -10.9643
470
root  -24.1902 32.9528 27.7224 -112.774 13.2617 89.6923
Spine  -8.52463 -5.29931 -5.48592
Spine1  -10.5363 23.656 -10.2963
Neck  3.97569e-016 0 -2.38542e-015
Head  32.7719 11.1256 -8.1769
R_Clavicle  0.277515 -14.6572 0.0627469
R_UpperArm  18.3867 -10.086 20.8676
R_Forearm  11.9141 24.5709 -22.3495
R_Hand  0.506294 8.14347 -7.43261
L_Clavicle  -0.213769 12.0216 -3.45283
L_UpperArm  1.06831 5.04064 5.48168
L_Forearm  -24.6683 -2.79899 -3.24705
L_Hand  0.766857 11.0341 5.54728
L_Thigh  -17.6038 -7.64292 -7.30792
L_Calf  3.60742 -2.72558 20.1971
L_Foot  4.13897 7.12467 8.54516
L_Toe0  5.82658 -0.443045 -1.33528
R_Thigh  -8.36175 1.16899 3.34577
R_Calf  -3.18875 6.04419 19.1434
R_Foot  1.3462 -0.258797 -11.2855
R_Toe0  9.01066 -2.32383 -3.79502
